<?xml version="1.0" encoding="UTF-8" standalone="no"?>
<svg
   xml:space="preserve"
   id="svg8"
   version="1.1"
   viewBox="0 0 210 297"
   height="297mm"
   width="210mm"
   sodipodi:docname="cat_010_r.svg"
   inkscape:version="1.3.2 (091e20e, 2023-11-25)"
   xmlns:inkscape="http://www.inkscape.org/namespaces/inkscape"
   xmlns:sodipodi="http://sodipodi.sourceforge.net/DTD/sodipodi-0.dtd"
   xmlns="http://www.w3.org/2000/svg"
   xmlns:svg="http://www.w3.org/2000/svg"
   xmlns:rdf="http://www.w3.org/1999/02/22-rdf-syntax-ns#"
   xmlns:cc="http://creativecommons.org/ns#"
   xmlns:dc="http://purl.org/dc/elements/1.1/"><sodipodi:namedview
     pagecolor="#ffffff"
     bordercolor="#666666"
     borderopacity="1"
     objecttolerance="10"
     gridtolerance="10"
     guidetolerance="10"
     inkscape:pageopacity="0"
     inkscape:pageshadow="2"
     inkscape:window-width="1906"
     inkscape:window-height="1224"
     id="namedview9"
     showgrid="false"
     inkscape:zoom="0.84096521"
     inkscape:cx="717.03323"
     inkscape:cy="891.83238"
     inkscape:window-x="0"
     inkscape:window-y="0"
     inkscape:window-maximized="0"
     inkscape:current-layer="path1-6"
     inkscape:showpageshadow="2"
     inkscape:pagecheckerboard="0"
     inkscape:deskcolor="#d1d1d1"
     inkscape:document-units="mm" /><defs
     id="defs2"><marker
       style="overflow:visible"
       id="Arrow1Lstart"
       refX="0.0"
       refY="0.0"
       orient="auto"><path
         transform="scale(0.8) translate(12.5,0)"
         style="fill-rule:evenodd;stroke:none;stroke-width:1pt;stroke-opacity:1;fill:#000000;fill-opacity:1"
         d="M 0.0,0.0 L 5.0,-5.0 L -12.5,0.0 L 5.0,5.0 L 0.0,0.0 z "
         id="path836" /></marker></defs><metadata
     id="metadata5"><rdf:RDF><cc:Work
         rdf:about=""><dc:format>image/svg+xml</dc:format><dc:type
           rdf:resource="http://purl.org/dc/dcmitype/StillImage" /></cc:Work></rdf:RDF></metadata><g
     id="path1-6"
     transform="translate(2.4010844,-10.22387)"><path
       style="color:#000000;fill:#060606;stroke-width:1.19062;-inkscape-stroke:none"
       d="m 137.28449,110.80806 c -1.30509,0.25913 -2.38473,1.04992 -3.3765,1.78126 -1.10432,0.81431 -2.33944,1.85721 -3.31139,2.7626 -0.30561,0.28467 -0.50077,0.49643 -0.79763,0.786 -0.44608,0.43512 -0.86582,0.76004 -1.3627,1.2534 -0.52453,0.52081 -0.82162,0.90842 -1.25805,1.36502 -0.28267,0.29574 -0.49297,0.48665 -0.77436,0.79762 -0.51763,0.57209 -1.06489,1.19549 -1.57198,1.82779 -0.29163,0.36361 -0.59024,0.79134 -0.94181,0.8604 -0.64336,0.12638 -1.30933,-0.1736 -2.05334,-0.39765 -1.23198,-0.37106 -2.50933,-0.65932 -3.77184,-0.87203 -0.75969,-0.12798 -1.59052,-0.19981 -2.29054,-0.24882 -0.24447,-0.0172 -0.39837,-0.0574 -0.67437,-0.0837 -0.37522,-0.0357 -0.57615,-0.021 -0.93016,-0.021 -0.50505,0 -0.88352,-0.0149 -1.45107,-0.0791 -0.44718,-0.0506 -0.95336,0.0468 -1.28829,0.0698 -0.24839,0.0181 -0.45619,0.01 -0.77901,0.01 -0.36672,0 -0.56083,-0.0139 -0.92785,0.0209 -0.44263,0.0421 -1.17771,0.0877 -1.71151,0.16045 -1.8187,0.24758 -3.59256,0.59952 -5.36939,1.15341 -0.27429,0.0855 -0.65326,0.19883 -1.01156,0.26045 -0.3583,0.0617 -0.69515,0.0552 -0.85343,-0.0232 -0.28963,-0.14366 -0.58694,-0.47153 -0.867383,-0.84644 -0.28044,-0.37493 -0.544515,-0.78895 -0.820874,-1.10459 -0.227397,-0.25969 -0.420122,-0.4477 -0.632515,-0.68367 -0.261467,-0.29052 -0.422419,-0.49998 -0.709253,-0.79994 -0.390858,-0.40876 -0.715208,-0.71987 -1.13248,-1.13713 -0.598456,-0.59847 -1.047462,-1.06671 -1.592913,-1.58827 -0.301189,-0.288 -0.511339,-0.44951 -0.799945,-0.70925 -0.230775,-0.20771 -0.437825,-0.41646 -0.683674,-0.63252 -0.771256,-0.67775 -1.560858,-1.33322 -2.395185,-1.958 -0.713115,-0.53402 -1.470121,-1.09696 -2.311468,-1.47897 -0.406381,-0.18437 -0.915505,-0.36089 -1.43711,-0.40462 -0.521607,-0.0437 -1.071375,0.0517 -1.48827,0.4395 -1.913898,1.78025 -2.445176,5.34529 -2.72772,7.70645 -0.03529,0.29491 -0.07939,0.49805 -0.09302,0.80924 -0.01569,0.35727 -0.0046,0.53553 -0.0046,0.91855 0,0.64368 -0.117169,1.11466 -0.04418,1.94871 0.04757,0.54374 0.04418,0.82295 0.04418,1.34408 0,0.41744 -0.01875,0.62525 0.0093,1.03481 0.01998,0.29179 0.06273,0.4436 0.08605,0.68833 0.02357,0.24737 0.01131,0.40628 0.02325,0.66973 0.02955,0.65094 0.141132,1.40927 0.251146,2.06962 0.36895,2.21457 1.232279,4.65435 1.337118,6.78558 0.08218,1.67049 -1.129936,3.78384 -1.574311,5.61356 -0.190851,0.78584 -0.407074,1.72006 -0.462759,2.53238 -0.01798,0.26324 -0.01155,0.44125 -0.01167,0.69763 -1.2e-4,0.30436 0.0085,0.51854 -0.0093,0.77902 -0.02207,0.32418 -0.08478,0.7759 -0.03721,1.17434 0.0522,0.43733 0.04646,0.70912 0.04651,1.11155 1.18e-4,0.25577 -0.0068,0.43117 0.0046,0.69065 0.02119,0.47727 0.134616,1.04942 0.227891,1.50687 0.404845,1.98555 0.952989,4.01266 1.862663,5.84379 1.046647,2.10684 2.415057,4.03501 3.969494,5.72518 0.288142,0.31333 0.496235,0.58749 0.813897,0.91158 0.331612,0.33828 0.596354,0.53965 0.913891,0.82319 1.05186,0.93925 2.238369,1.91141 3.425345,2.72074 1.100583,0.75044 2.257707,1.38699 3.432323,1.97428 3.307722,1.65388 7.091202,2.67121 10.736462,3.17188 0.39959,0.0549 0.91607,0.0986 1.25573,0.13255 0.24438,0.0245 0.39924,0.0663 0.68833,0.0861 0.40775,0.0286 0.70665,0.0119 1.14875,0.0119 h 2.61145 c 0.32366,0 0.57871,0.01 0.91622,-0.005 0.33124,-0.0145 0.50685,-0.0606 0.80925,-0.093 1.26183,-0.13508 2.68329,-0.32141 3.99275,-0.58833 2.85018,-0.58096 5.5444,-1.54305 8.11339,-2.82771 2.08827,-1.04428 4.154,-2.37456 5.94609,-3.91833 0.28618,-0.24654 0.52579,-0.43993 0.79995,-0.6953 0.30461,-0.28374 0.51235,-0.50296 0.79994,-0.79065 0.28807,-0.28816 0.51348,-0.50354 0.78368,-0.80227 1.4986,-1.65693 2.86034,-3.57579 3.88344,-5.60892 0.95008,-1.88797 1.66454,-3.98719 2.00452,-6.07865 0.0756,-0.46507 0.16086,-1.18944 0.20697,-1.59989 0.0312,-0.27926 0.0745,-0.46527 0.0976,-0.80459 0.0263,-0.39493 0.0119,-0.62161 0.0119,-1.03482 0,-0.72752 0.0363,-1.12391 -0.0209,-1.72313 -0.0269,-0.28061 -0.0617,-0.44545 -0.0954,-0.69065 -0.1149,-0.83918 -0.26983,-2.15853 -0.5023,-3.08816 -0.40232,-1.60888 -1.46044,-3.23389 -1.5278,-4.72525 -0.0338,-0.74796 0.29201,-1.62189 0.47671,-2.43937 0.56151,-2.48512 0.90869,-5.2056 1.18132,-7.51344 0.0398,-0.33545 0.0235,-0.50761 0.0442,-0.8046 0.0282,-0.40426 0.0961,-0.66268 0.10228,-1.14875 0.007,-0.65764 0,-0.95055 0,-1.59059 0,-0.56386 0.0189,-0.83395 -0.005,-1.372 -0.0177,-0.40447 -0.0711,-0.58233 -0.10227,-0.91855 -0.0243,-0.26193 -0.0408,-0.43876 -0.0744,-0.69064 -0.10775,-0.80866 -0.20641,-1.88116 -0.393,-2.74167 -0.17602,-0.81181 -0.56089,-2.3072 -1.19294,-3.5672 -0.31604,-0.63 -0.69244,-1.20279 -1.15341,-1.60222 -0.46097,-0.39942 -1.02759,-0.62097 -1.64873,-0.49763 z"
       id="path2" /></g></svg>
