<?xml version="1.0" encoding="UTF-8" standalone="no"?>
<!-- Created with Inkscape (http://www.inkscape.org/) -->

<svg
   width="210mm"
   height="297mm"
   viewBox="0 0 210 297"
   version="1.1"
   id="svg1"
   xml:space="preserve"
   inkscape:version="1.3.2 (091e20e, 2023-11-25)"
   sodipodi:docname="cat_020_r.svg"
   xmlns:inkscape="http://www.inkscape.org/namespaces/inkscape"
   xmlns:sodipodi="http://sodipodi.sourceforge.net/DTD/sodipodi-0.dtd"
   xmlns="http://www.w3.org/2000/svg"
   xmlns:svg="http://www.w3.org/2000/svg"><sodipodi:namedview
     id="namedview1"
     pagecolor="#ffffff"
     bordercolor="#666666"
     borderopacity="1.0"
     inkscape:showpageshadow="2"
     inkscape:pageopacity="0.0"
     inkscape:pagecheckerboard="0"
     inkscape:deskcolor="#d1d1d1"
     inkscape:document-units="mm"
     inkscape:zoom="1.4929298"
     inkscape:cx="76.025008"
     inkscape:cy="716.04171"
     inkscape:window-width="1989"
     inkscape:window-height="1236"
     inkscape:window-x="0"
     inkscape:window-y="0"
     inkscape:window-maximized="0"
     inkscape:current-layer="layer1" /><defs
     id="defs1" /><g
     inkscape:label="Layer 1"
     inkscape:groupmode="layer"
     id="layer1"><path
       style="color:#000000;fill:#000000;-inkscape-stroke:none"
       d="m 71.118943,125.86927 c 0.226913,0.0432 0.410241,0.20558 0.580078,0.42774 0.169837,0.22216 0.318832,0.49745 0.486328,0.73242 1.081437,1.51709 1.841219,3.266 2.611328,4.99023 0.878261,1.96636 1.514167,4.04531 2.275391,6.07813 0.83251,2.22316 1.759956,4.40558 2.492188,6.6543 0.48621,1.49316 1.033414,2.97453 1.255859,4.51171 0.232283,1.60514 0.204279,3.25501 0.08008,4.88086 -0.10895,1.42609 -0.171237,2.89506 -0.710937,4.17969 -0.468609,1.11543 -1.32275,2.04794 -2.150391,2.95703 -0.990881,1.08841 -2.167148,1.9979 -3.324219,2.92383 -1.347045,1.07796 -2.73792,2.10281 -4.18164,3.03711 -0.308252,0.19948 -0.723458,0.31467 -1.117188,0.46875 -0.39373,0.15408 -0.776468,0.35631 -0.974609,0.75391 -0.289612,0.58116 0.0017,1.27588 0.193359,1.8164 0.281336,0.79336 0.754689,1.53435 1.351563,2.11719 0.427275,0.41722 0.950762,0.86767 1.580078,0.94336 0.930741,0.11195 1.749095,-0.53348 2.550781,-0.79102 1.805093,-0.57989 3.639952,-1.09083 5.419922,-1.77929 1.842005,-0.71245 3.661857,-1.50439 5.416015,-2.42578 1.49082,-0.78306 3.058028,-1.52021 4.353516,-2.64844 1.223509,-1.06554 2.183541,-2.41644 3.078125,-3.76172 0.85346,-1.28343 1.567914,-2.66599 2.173828,-4.08594 0.712105,-1.6688 1.319812,-3.40092 1.705078,-5.18359 0.281831,-1.30409 0.32685,-2.64361 0.429688,-3.95703 0.07278,-0.92999 0.04044,-1.85607 0.134765,-2.76367 0.04562,-0.43896 0.0094,-0.90847 0.03125,-1.3418 0.02188,-0.43334 0.0988,-0.82302 0.34375,-1.11719 0.386264,-0.46389 1.156927,-0.76277 1.708985,-0.58789 0.152177,0.0482 0.261007,0.1807 0.363281,0.36328 0.102274,0.18258 0.188601,0.40526 0.316406,0.59375 0.405953,0.59872 0.817739,1.19136 1.134769,1.83008 1.03295,2.08104 1.8513,4.28232 2.51172,6.51953 0.53097,1.79871 0.88895,3.65454 1.15429,5.51758 0.25886,1.81751 0.42947,3.65338 0.42188,5.48633 -0.008,1.90611 -0.18881,3.81681 -0.48438,5.70117 -0.24843,1.58389 -0.58961,3.15881 -1.07812,4.67969 -1.04596,3.25641 -2.57086,6.34123 -3.957034,9.47851 -0.535644,1.21232 -1.120564,2.40279 -1.683593,3.60742 -0.746689,1.59759 -1.651749,3.13887 -2.25586,4.82227 -0.315884,0.88023 -0.432903,1.8077 -0.689453,2.67578 -0.215529,0.72928 -0.577435,1.43393 -0.740234,2.21484 -0.227542,1.09148 -0.199178,2.20808 -0.291016,3.29297 -0.08455,0.99911 -0.09422,1.99839 -0.240234,2.97266 -0.198761,1.32617 -0.44215,2.65285 -0.863282,3.91406 -0.361756,1.0834 -0.726728,2.19835 -1.40039,3.07617 -0.373793,0.48708 -0.875248,0.89192 -1.419922,1.16602 -0.356325,0.17931 -0.776915,0.24046 -1.195313,0.29297 -0.241246,0.0303 -0.482512,0.043 -0.710937,0.006 -0.25948,-0.0426 -0.517756,-0.1215 -0.738281,-0.25196 -0.375996,-0.2224 -0.640727,-0.66272 -1.058594,-0.96093 -0.246691,-0.17606 -0.517236,-0.29891 -0.771484,-0.42578 -0.09882,-0.0493 -0.207869,-0.13113 -0.330079,-0.20313 -0.122209,-0.072 -0.263725,-0.13784 -0.427734,-0.12109 -0.123752,0.0126 -0.210235,0.0881 -0.277344,0.15234 -0.06711,0.0642 -0.123147,0.12273 -0.169922,0.15039 -0.251278,0.14864 -0.527711,0.26439 -0.80664,0.38477 -0.509877,0.22004 -1.006307,0.46271 -1.523438,0.59179 -0.80233,0.20027 -1.630001,0.46437 -2.386718,0.29102 -0.445663,-0.1021 -0.849933,-0.42993 -1.205079,-0.77344 -0.26556,-0.25684 -0.462773,-0.59859 -0.648437,-0.94531 -0.245034,-0.4576 -0.446958,-0.94459 -0.580078,-1.44531 -0.249795,-0.9396 -0.268797,-1.94265 -0.408203,-2.93555 -0.0485,-0.34546 0.03391,-0.78007 -0.171875,-1.1582 -0.251259,-0.46166 -0.689166,-0.84136 -1.179688,-1.01367 -4.801051,-1.68655 -11.076274,-2.42631 -15.261719,0.59179 -0.422471,0.30465 -0.600649,0.78928 -0.722656,1.29102 -0.122006,0.50173 -0.193555,1.03062 -0.371094,1.45312 -0.292682,0.69653 -0.562094,1.40034 -0.921875,2.04688 -0.389756,0.7004 -0.735142,1.44614 -1.302734,1.94336 -0.229305,0.20088 -0.533013,0.32769 -0.839844,0.41015 -0.440604,0.11842 -0.914242,0.14316 -1.371093,0.0918 -0.400835,-0.0451 -0.796824,-0.21304 -1.203125,-0.36133 -0.40784,-0.14884 -0.797402,-0.45361 -1.283204,-0.55469 -0.235322,-0.0489 -0.46232,-0.0145 -0.667968,-0.002 -0.414575,0.0252 -0.854955,0.0267 -1.279297,0.1582 -0.147342,0.0457 -0.265582,0.1287 -0.375,0.20118 -0.109418,0.0725 -0.208868,0.13393 -0.308594,0.15625 -0.777254,0.17393 -1.639149,0.19505 -2.365234,-0.0918 -0.894037,-0.35316 -1.798002,-1.00121 -2.1875,-1.87109 -0.342904,-0.76581 -0.05476,-1.73349 0.04492,-2.64844 0.154906,-1.42171 0.519228,-2.82035 0.873046,-4.2168 0.403728,-1.59344 1.417197,-3.10705 1.449219,-4.82812 0.02612,-1.40394 -0.837771,-2.64066 -1.023437,-3.93946 -0.241608,-1.69012 -0.137216,-3.42458 -0.148438,-5.15429 -0.01258,-1.93959 -0.05701,-3.88034 0.0918,-5.80469 0.126692,-1.63843 0.269228,-3.28512 0.677734,-4.86133 0.116885,-0.45099 0.36513,-0.88289 0.595704,-1.32812 0.230573,-0.44524 0.444128,-0.90681 0.46289,-1.42579 0.01385,-0.38337 -0.09222,-0.79927 -0.339844,-1.10351 -1.074845,-1.32053 -2.994886,-2.26576 -4.777343,-3.00391 -0.891229,-0.36907 -1.747869,-0.68526 -2.447266,-0.96484 -0.699397,-0.27958 -1.24561,-0.52959 -1.486328,-0.73242 -1.388888,-1.1703 -1.828156,-1.6128 -2.751953,-3.17383 -0.720639,-1.21773 -1.591919,-2.83307 -2.066406,-4.54883 -0.474817,-1.71695 -0.648007,-3.77646 -0.650391,-5.68945 -0.003,-2.40449 0.442952,-4.80016 0.806641,-7.19336 0.278849,-1.83495 0.724207,-3.64588 1.054687,-5.48438 0.322759,-1.79552 0.508043,-3.60937 0.898438,-5.375 0.332698,-1.50468 0.751642,-2.99182 1.232421,-4.45507 0.18087,-0.55049 0.320068,-1.1112 0.601563,-1.58008 0.152829,-0.25456 0.297072,-0.52957 0.498047,-0.59375 l 0.0039,-0.002 c 0.391376,-0.12288 0.889062,0.0834 1.279297,0.33008 1.325652,0.83794 2.263612,2.14099 3.166016,3.51563 0.902403,1.37464 1.767238,2.8184 2.964843,3.92187 0.37405,0.34466 0.770144,0.85447 1.34961,0.92188 0.412824,0.048 0.791478,-0.10199 1.146484,-0.29102 0.355007,-0.18903 0.693018,-0.41914 1.027344,-0.55664 1.209864,-0.49756 2.366041,-1.11066 3.583984,-1.52344 1.028763,-0.34864 2.065004,-0.70432 3.125,-0.80468 0.834702,-0.0791 1.691013,0.0685 2.550781,0.16211 1.181889,0.12871 2.35491,0.36126 3.539063,0.55078 0.243612,0.039 0.517317,0.16086 0.798828,0.24804 0.281511,0.0872 0.583574,0.14014 0.869141,0.004 1.154458,-0.55069 1.772085,-1.67914 2.271484,-2.91016 0.499399,-1.23102 0.887836,-2.57519 1.556641,-3.5957 0.760793,-1.16087 1.386708,-2.45378 2.412109,-3.30469 0.188974,-0.15681 0.395803,-0.33016 0.605469,-0.45117 0.209666,-0.12101 0.414241,-0.18633 0.613281,-0.14844 z"
       id="path4" /></g></svg>
