<?xml version="1.0" encoding="UTF-8" standalone="no"?>
<!-- Created with Inkscape (http://www.inkscape.org/) -->

<svg
   width="210mm"
   height="297mm"
   viewBox="0 0 210 297"
   version="1.1"
   id="svg1"
   xml:space="preserve"
   inkscape:version="1.3.2 (091e20e, 2023-11-25)"
   sodipodi:docname="cat_030_r.svg"
   xmlns:inkscape="http://www.inkscape.org/namespaces/inkscape"
   xmlns:sodipodi="http://sodipodi.sourceforge.net/DTD/sodipodi-0.dtd"
   xmlns="http://www.w3.org/2000/svg"
   xmlns:svg="http://www.w3.org/2000/svg"><sodipodi:namedview
     id="namedview1"
     pagecolor="#ffffff"
     bordercolor="#666666"
     borderopacity="1.0"
     inkscape:showpageshadow="2"
     inkscape:pageopacity="0.0"
     inkscape:pagecheckerboard="0"
     inkscape:deskcolor="#d1d1d1"
     inkscape:document-units="mm"
     inkscape:zoom="2.9858596"
     inkscape:cx="456.15004"
     inkscape:cy="484.61756"
     inkscape:window-width="2560"
     inkscape:window-height="1368"
     inkscape:window-x="0"
     inkscape:window-y="0"
     inkscape:window-maximized="1"
     inkscape:current-layer="layer1" /><defs
     id="defs1" /><g
     inkscape:label="Layer 1"
     inkscape:groupmode="layer"
     id="layer1"><path
       style="color:#000000;fill:#000000;-inkscape-stroke:none"
       d="m 136.94815,82.043106 c -0.0658,-0.0062 -0.13857,-2.31e-4 -0.22657,0.01367 -0.176,0.02781 -0.40686,0.08879 -0.68164,0.177734 -0.54955,0.177898 -1.27494,0.465622 -2.05078,0.8125 -1.55167,0.693757 -3.29942,1.620103 -4.22851,2.386715 -0.77007,0.6354 -1.57104,1.6482 -2.21875,2.529295 -0.32386,0.44055 -0.60969,0.84792 -0.83008,1.15625 -0.1102,0.15417 -0.20344,0.28536 -0.27735,0.38086 -0.0739,0.0955 -0.13763,0.16108 -0.14453,0.16602 -0.0417,0.0299 -0.15018,0.0474 -0.3164,0.0234 -0.16623,-0.024 -0.38242,-0.0843 -0.63477,-0.17188 -0.50469,-0.17518 -1.15309,-0.45571 -1.86328,-0.75781 -1.42038,-0.60422 -3.09055,-1.29307 -4.4375,-1.373045 -2.07723,-0.12335 -3.77643,0.0374 -5.73438,0.740225 -0.95753,0.34376 -2.03276,1.00521 -2.95312,1.57227 -0.46018,0.28353 -0.88143,0.54468 -1.22461,0.72852 -0.34318,0.18383 -0.62007,0.28021 -0.72656,0.27148 -0.22793,-0.0187 -0.41004,-0.17929 -0.64649,-0.48437 -0.23644,-0.30508 -0.51443,-0.74034 -0.92773,-1.24805 -0.8266,-1.01543 -2.19814,-2.318495 -4.89649,-3.501955 -0.9435,-0.4138 -2.26609,-0.992414 -3.42968,-1.423824 -0.5818,-0.215705 -1.12326,-0.395167 -1.5625,-0.498047 -0.21962,-0.05144 -0.41236,-0.08397 -0.57618,-0.0918 -0.16381,-0.0078 -0.30052,0.006 -0.4082,0.07227 -0.20084,0.12356 -0.33905,0.405434 -0.48633,0.792969 -0.14727,0.387534 -0.28598,0.881732 -0.41406,1.421872 -0.25615,1.08029 -0.46409,2.338685 -0.56836,3.253905 -0.25312,2.22174 -0.3613,4.513511 0.18555,6.701171 0.18501,0.74013 0.65097,1.70676 1.07617,2.58008 0.2126,0.43666 0.41629,0.8503 0.56641,1.19336 0.15011,0.34306 0.24459,0.624509 0.25195,0.759769 0.0173,0.31896 -0.20667,0.89905 -0.47656,1.57226 -0.2699,0.67321 -0.57851,1.44931 -0.70118,2.22852 -0.29048,1.84512 -0.49151,3.79152 -0.0586,5.63086 0.36093,1.53331 1.0844,3.04984 2.16016,4.23046 1.48549,1.63029 3.54657,2.72115 5.58789,3.56836 1.30716,0.54254 3.32721,0.91766 5.03906,1.20118 0.85593,0.14175 1.63296,0.26091 2.20117,0.36328 0.28411,0.0512 0.51624,0.0975 0.67578,0.14062 0.0798,0.0215 0.14224,0.0437 0.17969,0.0606 0.0374,0.0169 0.0381,0.0403 0.0234,-0.004 0.44883,1.35121 0.48858,3.93094 0.2207,5.875 -0.28122,2.04097 -0.97617,4.0445 -1.90039,5.90235 -0.70047,1.40803 -1.749,2.64068 -2.73437,3.90234 -0.98355,1.25935 -2.08767,2.43128 -3.15625,3.63477 -1.54386,1.7388 -3.23478,3.36698 -4.70508,5.18359 -0.96601,1.19352 -1.93796,2.40627 -2.69531,3.74805 -1.11911,1.98275 -2.10336,4.07737 -2.67969,6.27734 -0.33035,1.26101 -0.48696,3.25443 -0.60937,4.94141 -0.0612,0.84349 -0.11243,1.61004 -0.17188,2.16406 -0.0297,0.27701 -0.0618,0.50063 -0.0957,0.65039 -0.0162,0.0713 -0.0332,0.12362 -0.0469,0.1543 -0.11501,2.3e-4 -0.26578,-0.0813 -0.43359,-0.2793 -0.17611,-0.2078 -0.35857,-0.51252 -0.53321,-0.85547 -0.34928,-0.68589 -0.6662,-1.52637 -0.86914,-2.09375 -0.5863,-1.63925 -0.50343,-3.48857 -0.31055,-5.23828 0.21339,-1.93562 1.02166,-3.81732 1.88477,-5.59375 1.08318,-2.22934 2.62848,-3.956 4.24024,-5.88477 0.86407,-1.03402 1.8656,-2.10834 2.69922,-3.17968 2.77052,-3.56066 3.87686,-9.11759 3.68359,-12.47657 -0.12833,-2.2304 -0.86718,-4.45795 -1.9668,-6.41211 -1.12808,-2.00476 -2.70456,-3.84452 -4.60351,-5.19335 -1.50295,-1.06758 -3.10591,-2.20051 -4.9336,-2.65821 h -0.002 c -3.27308,-0.74272 -7.1145,-1.23828 -10.35938,0.0469 h -0.002 l -0.002,0.002 c -2.25285,1.0134 -4.37607,2.89558 -5.97265,4.72852 -1.08913,1.25035 -1.917299,3.19474 -2.253908,4.79101 -0.31683,1.50245 -0.260934,2.82554 0.472656,4.19531 0.601112,1.12234 1.706472,2.23803 2.958982,2.62696 1.59456,0.49517 3.41384,0.35093 4.98633,-0.17774 0.80353,-0.27015 1.99875,-1.17791 3.22852,-1.8789 0.61488,-0.3505 1.23512,-0.64959 1.80078,-0.79102 0.56566,-0.14143 1.06738,-0.12589 1.47656,0.12891 0.59905,0.37301 0.90561,0.92556 1.07813,1.57617 0.17251,0.65061 0.20536,1.39523 0.25195,2.11914 0.12744,1.98021 -0.59775,3.98318 -1.39453,5.83789 -1.00741,2.34502 -3.01108,4.20653 -4.23633,6.51367 -1.25238,2.35828 -2.46049,4.794 -3.11719,7.38477 -0.7139,2.81642 -0.93878,5.76133 -0.83789,8.65625 0.0849,2.43704 0.4501,4.89927 1.21094,7.22656 0.60588,1.85323 1.53343,3.61348 2.6289,5.23437 0.89057,1.3177 1.8922,2.62471 3.17969,3.60547 1.55247,1.18263 3.44347,1.86438 5.24805,2.57422 1.04063,0.40935 2.11398,1.01261 3.28516,0.99024 2.85317,-0.0545 20.1442,-0.0804 29.64844,-0.17969 2.36461,-0.0247 4.41032,-1.67398 6.20507,-3.09766 1.52131,-1.20673 2.81755,-2.69399 3.69141,-4.41015 0.99889,-1.96173 1.83228,-6.0277 2.20703,-9.12696 0.27756,-2.29547 0.30338,-4.84552 0.082,-7.14648 -0.26327,-2.73604 -0.70968,-6.29044 -1.30664,-8.98242 -0.65005,-2.93135 -1.54704,-5.28402 -2.30078,-8.17578 -0.79732,-3.05895 -1.64636,-5.81797 -2.66015,-8.81446 -0.50483,-1.49215 -1.44862,-3.58711 -2.23438,-5.35351 -0.39288,-0.8832 -0.74614,-1.68344 -0.98437,-2.28125 -0.11912,-0.29891 -0.20831,-0.54932 -0.25977,-0.72852 -0.0257,-0.0896 -0.0415,-0.16063 -0.0469,-0.20898 -0.005,-0.0483 0.012,-0.0689 -0.008,-0.043 -0.026,0.0342 -0.009,0.006 0.0312,-0.006 0.0399,-0.012 0.10087,-0.0252 0.17774,-0.0391 0.15372,-0.0278 0.37261,-0.0574 0.63672,-0.0899 0.5282,-0.065 1.24248,-0.14185 2.02343,-0.24609 1.56191,-0.20848 3.38699,-0.52195 4.55078,-1.08203 1.72472,-0.83004 3.23445,-1.66095 4.49414,-3.10156 1.52306,-1.7418 2.7918,-4.14215 3.41797,-6.34571 0.50005,-1.75968 0.31445,-3.60518 -0.25195,-5.33398 -0.32126,-0.9806 -0.79711,-1.94573 -1.45313,-2.759769 -0.28952,-0.35928 -0.72893,-0.62702 -1.08984,-0.91015 -0.36091,-0.28314 -0.63115,-0.56764 -0.64453,-0.94727 -0.0144,-0.40915 0.23682,-1.07907 0.51367,-1.83008 0.27685,-0.751 0.5755,-1.58988 0.625,-2.39258 0.10821,-1.75477 -0.20979,-3.881031 -0.62109,-5.582031 -0.54687,-2.261695 -2.20553,-5.442584 -2.41992,-5.822259 -0.0414,-0.07328 -0.11585,-0.09142 -0.18164,-0.09766 z"
       id="path3" /></g></svg>
