999
"DXF R12 Output" (www.mydxf.blogspot.com)
 0 
SECTION
 2 
HEADER
 9 
$ACADVER
 1 
AC1009
 9 
$EXTMIN
 10 
 0 
 20 
 0 
 9 
$EXTMAX
 10 
 8.5 
 20 
 11 
 0 
ENDSEC
 0 
SECTION
 2 
ENTITIES
0
LINE
8
Layer 1
10
63.488107
20
175.507070
11
64.788222
21
162.231516
0
LINE
8
Layer 1
10
64.788222
20
162.231516
11
65.320649
21
155.584401
0
LINE
8
Layer 1
10
65.320649
20
155.584401
11
65.651828
21
148.926390
0
LINE
8
Layer 1
10
65.651828
20
148.926390
11
65.230970
21
146.327303
0
LINE
8
Layer 1
10
65.230970
20
146.327303
11
64.884784
21
144.966988
0
LINE
8
Layer 1
10
64.884784
20
144.966988
11
64.402662
21
143.674392
0
LINE
8
Layer 1
10
64.402662
20
143.674392
11
63.750528
21
142.530694
0
LINE
8
Layer 1
10
63.750528
20
142.530694
11
62.894309
21
141.617068
0
LINE
8
Layer 1
10
62.894309
20
141.617068
11
61.799929
21
141.014691
0
LINE
8
Layer 1
10
61.799929
20
141.014691
11
60.433316
21
140.804740
0
LINE
8
Layer 1
10
60.433316
20
140.804740
11
59.079946
21
141.034740
0
LINE
8
Layer 1
10
59.079946
20
141.034740
11
58.099426
21
141.661190
0
LINE
8
Layer 1
10
58.099426
20
141.661190
11
57.385468
21
142.578636
0
LINE
8
Layer 1
10
57.385468
20
142.578636
11
56.831782
21
143.681626
0
LINE
8
Layer 1
10
56.831782
20
143.681626
11
55.780073
21
146.022427
0
LINE
8
Layer 1
10
55.780073
20
146.022427
11
55.069471
21
147.049332
0
LINE
8
Layer 1
10
55.069471
20
147.049332
11
54.093986
21
147.839970
0
LINE
8
Layer 1
10
54.093986
20
147.839970
11
52.934317
21
148.489285
0
LINE
8
Layer 1
10
52.934317
20
148.489285
11
51.767131
21
148.652390
0
LINE
8
Layer 1
10
51.767131
20
148.652390
11
50.644081
21
148.402481
0
LINE
8
Layer 1
10
50.644081
20
148.402481
11
49.616815
21
147.812751
0
LINE
8
Layer 1
10
49.616815
20
147.812751
11
48.736983
21
146.956397
0
LINE
8
Layer 1
10
48.736983
20
146.956397
11
48.056236
21
145.906614
0
LINE
8
Layer 1
10
48.056236
20
145.906614
11
47.626224
21
144.736596
0
LINE
8
Layer 1
10
47.626224
20
144.736596
11
47.498596
21
143.519540
0
LINE
8
Layer 1
10
47.498596
20
143.519540
11
47.764948
21
140.254983
0
LINE
8
Layer 1
10
47.764948
20
140.254983
11
48.366895
21
137.038244
0
LINE
8
Layer 1
10
48.366895
20
137.038244
11
48.840342
21
135.481492
0
LINE
8
Layer 1
10
48.840342
20
135.481492
11
49.453639
21
133.977120
0
LINE
8
Layer 1
10
49.453639
20
133.977120
11
50.225437
21
132.538601
0
LINE
8
Layer 1
10
50.225437
20
132.538601
11
51.174386
21
131.179410
0
LINE
8
Layer 1
10
51.174386
20
131.179410
11
52.540517
21
129.242675
0
LINE
8
Layer 1
10
52.540517
20
129.242675
11
54.136774
21
127.445449
0
LINE
8
Layer 1
10
54.136774
20
127.445449
11
55.936978
21
125.844108
0
LINE
8
Layer 1
10
55.936978
20
125.844108
11
57.914949
21
124.495025
0
LINE
8
Layer 1
10
57.914949
20
124.495025
11
60.044508
21
123.454574
0
LINE
8
Layer 1
10
60.044508
20
123.454574
11
62.299474
21
122.779131
0
LINE
8
Layer 1
10
62.299474
20
122.779131
11
64.653668
21
122.525068
0
LINE
8
Layer 1
10
64.653668
20
122.525068
11
67.080911
21
122.748760
0
LINE
8
Layer 1
10
67.080911
20
122.748760
11
69.392513
21
123.305945
0
LINE
8
Layer 1
10
69.392513
20
123.305945
11
71.477654
21
124.304652
0
LINE
8
Layer 1
10
71.477654
20
124.304652
11
73.331194
21
125.676969
0
LINE
8
Layer 1
10
73.331194
20
125.676969
11
74.947991
21
127.354979
0
LINE
8
Layer 1
10
74.947991
20
127.354979
11
76.322905
21
129.270768
0
LINE
8
Layer 1
10
76.322905
20
129.270768
11
77.450795
21
131.356423
0
LINE
8
Layer 1
10
77.450795
20
131.356423
11
78.326520
21
133.544029
0
LINE
8
Layer 1
10
78.326520
20
133.544029
11
78.944938
21
135.765670
0
LINE
8
Layer 1
10
78.944938
20
135.765670
11
79.262928
21
136.913494
0
LINE
8
Layer 1
10
79.262928
20
136.913494
11
79.484495
21
138.193583
0
LINE
8
Layer 1
10
79.484495
20
138.193583
11
79.954636
21
140.822603
0
LINE
8
Layer 1
10
79.954636
20
140.822603
11
80.361345
21
142.007555
0
LINE
8
Layer 1
10
80.361345
20
142.007555
11
80.987904
21
142.996818
0
LINE
8
Layer 1
10
80.987904
20
142.996818
11
81.913382
21
143.708403
0
LINE
8
Layer 1
10
81.913382
20
143.708403
11
83.216846
21
144.060320
0
LINE
8
Layer 1
10
83.216846
20
144.060320
11
84.627593
21
144.141482
0
LINE
8
Layer 1
10
84.627593
20
144.141482
11
85.836501
21
143.809155
0
LINE
8
Layer 1
10
85.836501
20
143.809155
11
86.845942
21
143.136157
0
LINE
8
Layer 1
10
86.845942
20
143.136157
11
87.658284
21
142.195308
0
LINE
8
Layer 1
10
87.658284
20
142.195308
11
88.275897
21
141.059425
0
LINE
8
Layer 1
10
88.275897
20
141.059425
11
88.701152
21
139.801329
0
LINE
8
Layer 1
10
88.701152
20
139.801329
11
88.936418
21
138.493837
0
LINE
8
Layer 1
10
88.936418
20
138.493837
11
88.984065
21
137.209770
0
LINE
8
Layer 1
10
88.984065
20
137.209770
11
89.642941
21
134.058873
0
LINE
8
Layer 1
10
89.642941
20
134.058873
11
90.537872
21
130.932188
0
LINE
8
Layer 1
10
90.537872
20
130.932188
11
91.173584
21
129.464611
0
LINE
8
Layer 1
10
91.173584
20
129.464611
11
91.987982
21
128.107111
0
LINE
8
Layer 1
10
91.987982
20
128.107111
11
93.020955
21
126.894362
0
LINE
8
Layer 1
10
93.020955
20
126.894362
11
94.312395
21
125.861040
0
LINE
8
Layer 1
10
94.312395
20
125.861040
11
95.666916
21
124.937131
0
LINE
8
Layer 1
10
95.666916
20
124.937131
11
97.127201
21
124.137873
0
LINE
8
Layer 1
10
97.127201
20
124.137873
11
98.666873
21
123.498621
0
LINE
8
Layer 1
10
98.666873
20
123.498621
11
100.259555
21
123.054733
0
LINE
8
Layer 1
10
100.259555
20
123.054733
11
101.878871
21
122.841564
0
LINE
8
Layer 1
10
101.878871
20
122.841564
11
103.498443
21
122.894471
0
LINE
8
Layer 1
10
103.498443
20
122.894471
11
105.091895
21
123.248811
0
LINE
8
Layer 1
10
105.091895
20
123.248811
11
106.632850
21
123.939940
0
LINE
8
Layer 1
10
106.632850
20
123.939940
11
107.832723
21
124.552844
0
LINE
8
Layer 1
10
107.832723
20
124.552844
11
108.880035
21
125.348579
0
LINE
8
Layer 1
10
108.880035
20
125.348579
11
109.770279
21
126.300234
0
LINE
8
Layer 1
10
109.770279
20
126.300234
11
110.498947
21
127.380893
0
LINE
8
Layer 1
10
110.498947
20
127.380893
11
111.061533
21
128.563642
0
LINE
8
Layer 1
10
111.061533
20
128.563642
11
111.453528
21
129.821569
0
LINE
8
Layer 1
10
111.453528
20
129.821569
11
111.670427
21
131.127760
0
LINE
8
Layer 1
10
111.670427
20
131.127760
11
111.707720
21
132.455300
0
LINE
8
Layer 1
10
111.707720
20
132.455300
11
111.727076
21
133.793354
0
LINE
8
Layer 1
10
111.727076
20
133.793354
11
111.499838
21
135.061215
0
LINE
8
Layer 1
10
111.499838
20
135.061215
11
111.059788
21
136.257647
0
LINE
8
Layer 1
10
111.059788
20
136.257647
11
110.440710
21
137.381418
0
LINE
8
Layer 1
10
110.440710
20
137.381418
11
108.800602
21
139.406034
0
LINE
8
Layer 1
10
108.800602
20
139.406034
11
106.849780
21
141.125190
0
LINE
8
Layer 1
10
106.849780
20
141.125190
11
105.717582
21
142.404491
0
LINE
8
Layer 1
10
105.717582
20
142.404491
11
104.807797
21
143.816525
0
LINE
8
Layer 1
10
104.807797
20
143.816525
11
104.077333
21
145.332757
0
LINE
8
Layer 1
10
104.077333
20
145.332757
11
103.483097
21
146.924651
0
LINE
8
Layer 1
10
103.483097
20
146.924651
11
101.606590
21
153.478170
0
LINE
8
Layer 1
10
101.606590
20
153.478170
11
100.505306
21
158.867434
0
LINE
8
Layer 1
10
100.505306
20
158.867434
11
99.748499
21
164.313736
0
LINE
8
Layer 1
10
99.748499
20
164.313736
11
98.662349
21
175.264600
0
LINE
8
Layer 1
10
98.662349
20
175.264600
11
100.188121
21
175.462201
0
LINE
8
Layer 1
10
100.188121
20
175.462201
11
101.619243
21
175.316824
0
LINE
8
Layer 1
10
101.619243
20
175.316824
11
102.953692
21
174.876155
0
LINE
8
Layer 1
10
102.953692
20
174.876155
11
104.189449
21
174.187883
0
LINE
8
Layer 1
10
104.189449
20
174.187883
11
105.324491
21
173.299692
0
LINE
8
Layer 1
10
105.324491
20
173.299692
11
106.356797
21
172.259272
0
LINE
8
Layer 1
10
106.356797
20
172.259272
11
108.105120
21
169.912490
0
LINE
8
Layer 1
10
108.105120
20
169.912490
11
108.519182
21
169.179310
0
LINE
8
Layer 1
10
108.519182
20
169.179310
11
109.025544
21
168.587905
0
LINE
8
Layer 1
10
109.025544
20
168.587905
11
110.247270
21
167.808643
0
LINE
8
Layer 1
10
110.247270
20
167.808643
11
111.634501
21
167.531144
0
LINE
8
Layer 1
10
111.634501
20
167.531144
11
113.051439
21
167.711850
0
LINE
8
Layer 1
10
113.051439
20
167.711850
11
114.362287
21
168.307203
0
LINE
8
Layer 1
10
114.362287
20
168.307203
11
115.431248
21
169.273645
0
LINE
8
Layer 1
10
115.431248
20
169.273645
11
116.122525
21
170.567616
0
LINE
8
Layer 1
10
116.122525
20
170.567616
11
116.284095
21
171.323814
0
LINE
8
Layer 1
10
116.284095
20
171.323814
11
116.300320
21
172.145560
0
LINE
8
Layer 1
10
116.300320
20
172.145560
11
116.041806
21
174.058450
0
LINE
8
Layer 1
10
116.041806
20
174.058450
11
115.569298
21
175.917093
0
LINE
8
Layer 1
10
115.569298
20
175.917093
11
114.914513
21
177.723435
0
LINE
8
Layer 1
10
114.914513
20
177.723435
11
114.109171
21
179.479420
0
LINE
8
Layer 1
10
114.109171
20
179.479420
11
112.173689
21
182.848104
0
LINE
8
Layer 1
10
112.173689
20
182.848104
11
110.016600
21
186.038710
0
LINE
8
Layer 1
10
110.016600
20
186.038710
11
108.587160
21
187.494635
0
LINE
8
Layer 1
10
108.587160
20
187.494635
11
106.980821
21
188.780280
0
LINE
8
Layer 1
10
106.980821
20
188.780280
11
105.227215
21
189.870523
0
LINE
8
Layer 1
10
105.227215
20
189.870523
11
103.355970
21
190.740245
0
LINE
8
Layer 1
10
103.355970
20
190.740245
11
101.396717
21
191.364325
0
LINE
8
Layer 1
10
101.396717
20
191.364325
11
99.379085
21
191.717643
0
LINE
8
Layer 1
10
99.379085
20
191.717643
11
97.332703
21
191.775078
0
LINE
8
Layer 1
10
97.332703
20
191.775078
11
95.287202
21
191.511510
0
LINE
8
Layer 1
10
95.287202
20
191.511510
11
89.904720
21
190.934371
0
LINE
8
Layer 1
10
89.904720
20
190.934371
11
84.486904
21
190.739403
0
LINE
8
Layer 1
10
84.486904
20
190.739403
11
81.782082
21
190.829760
0
LINE
8
Layer 1
10
81.782082
20
190.829760
11
79.089228
21
191.069093
0
LINE
8
Layer 1
10
79.089228
20
191.069093
11
76.415277
21
191.475212
0
LINE
8
Layer 1
10
76.415277
20
191.475212
11
73.767163
21
192.065930
0
LINE
8
Layer 1
10
73.767163
20
192.065930
11
68.692798
21
192.862655
0
LINE
8
Layer 1
10
68.692798
20
192.862655
11
63.580731
21
193.410950
0
LINE
8
Layer 1
10
63.580731
20
193.410950
11
61.020536
21
193.511527
0
LINE
8
Layer 1
10
61.020536
20
193.511527
11
58.462888
21
193.453505
0
LINE
8
Layer 1
10
58.462888
20
193.453505
11
55.911778
21
193.204721
0
LINE
8
Layer 1
10
55.911778
20
193.204721
11
53.371196
21
192.733010
0
LINE
8
Layer 1
10
53.371196
20
192.733010
11
51.510005
21
192.267612
0
LINE
8
Layer 1
10
51.510005
20
192.267612
11
49.810749
21
191.397626
0
LINE
8
Layer 1
10
49.810749
20
191.397626
11
48.328268
21
190.189475
0
LINE
8
Layer 1
10
48.328268
20
190.189475
11
47.117406
21
188.709583
0
LINE
8
Layer 1
10
47.117406
20
188.709583
11
46.233004
21
187.024371
0
LINE
8
Layer 1
10
46.233004
20
187.024371
11
45.729903
21
185.200263
0
LINE
8
Layer 1
10
45.729903
20
185.200263
11
45.662947
21
183.303682
0
LINE
8
Layer 1
10
45.662947
20
183.303682
11
46.086976
21
181.401050
0
LINE
8
Layer 1
10
46.086976
20
181.401050
11
46.417391
21
180.042432
0
LINE
8
Layer 1
10
46.417391
20
180.042432
11
46.984338
21
178.828762
0
LINE
8
Layer 1
10
46.984338
20
178.828762
11
47.759266
21
177.775215
0
LINE
8
Layer 1
10
47.759266
20
177.775215
11
48.713621
21
176.896964
0
LINE
8
Layer 1
10
48.713621
20
176.896964
11
49.818852
21
176.209182
0
LINE
8
Layer 1
10
49.818852
20
176.209182
11
51.046406
21
175.727044
0
LINE
8
Layer 1
10
51.046406
20
175.727044
11
52.367732
21
175.465722
0
LINE
8
Layer 1
10
52.367732
20
175.465722
11
53.754276
21
175.440390
0
LINE
8
Layer 1
10
53.754276
20
175.440390
11
58.621562
21
175.336006
0
LINE
8
Layer 1
10
58.621562
20
175.336006
11
63.488107
21
175.507090
0
LINE
8
Layer 1
10
63.488107
20
175.507090
11
63.488107
21
175.507070
 0 
ENDSEC
 0 
EOF