999
"DXF R12 Output" (www.mydxf.blogspot.com)
 0 
SECTION
 2 
HEADER
 9 
$ACADVER
 1 
AC1009
 9 
$EXTMIN
 10 
 0 
 20 
 0 
 9 
$EXTMAX
 10 
 8.5 
 20 
 11 
 0 
ENDSEC
 0 
SECTION
 2 
ENTITIES
0
LINE
8
1
10
107.112096
20
122.027706
11
109.914653
21
122.397398
0
LINE
8
1
10
109.914653
20
122.397398
11
112.651384
21
123.034425
0
LINE
8
1
10
112.651384
20
123.034425
11
115.307717
21
123.923865
0
LINE
8
1
10
115.307717
20
123.923865
11
117.869079
21
125.050797
0
LINE
8
1
10
117.869079
20
125.050797
11
120.320899
21
126.400297
0
LINE
8
1
10
120.320899
20
126.400297
11
122.648606
21
127.957446
0
LINE
8
1
10
122.648606
20
127.957446
11
124.837626
21
129.707321
0
LINE
8
1
10
124.837626
20
129.707321
11
126.873388
21
131.635000
0
LINE
8
1
10
126.873388
20
131.635000
11
128.741320
21
133.725561
0
LINE
8
1
10
128.741320
20
133.725561
11
130.426849
21
135.964083
0
LINE
8
1
10
130.426849
20
135.964083
11
131.915405
21
138.335645
0
LINE
8
1
10
131.915405
20
138.335645
11
133.192415
21
140.825323
0
LINE
8
1
10
133.192415
20
140.825323
11
134.243307
21
143.418197
0
LINE
8
1
10
134.243307
20
143.418197
11
135.053509
21
146.099345
0
LINE
8
1
10
135.053509
20
146.099345
11
135.608448
21
148.853845
0
LINE
8
1
10
135.608448
20
148.853845
11
135.893554
21
151.666775
0
LINE
8
1
10
135.893554
20
151.666775
11
135.962424
21
155.692254
0
LINE
8
1
10
135.962424
20
155.692254
11
135.501235
21
159.676528
0
LINE
8
1
10
135.501235
20
159.676528
11
134.538386
21
163.566568
0
LINE
8
1
10
134.538386
20
163.566568
11
133.102273
21
167.309341
0
LINE
8
1
10
133.102273
20
167.309341
11
131.221295
21
170.851816
0
LINE
8
1
10
131.221295
20
170.851816
11
128.923849
21
174.140961
0
LINE
8
1
10
128.923849
20
174.140961
11
126.238333
21
177.123746
0
LINE
8
1
10
126.238333
20
177.123746
11
123.193144
21
179.747138
0
LINE
8
1
10
123.193144
20
179.747138
11
125.157799
21
182.873008
0
LINE
8
1
10
125.157799
20
182.873008
11
126.624461
21
186.258238
0
LINE
8
1
10
126.624461
20
186.258238
11
127.581114
21
189.822895
0
LINE
8
1
10
127.581114
20
189.822895
11
128.015743
21
193.487051
0
LINE
8
1
10
128.015743
20
193.487051
11
127.916334
21
197.170773
0
LINE
8
1
10
127.916334
20
197.170773
11
127.270870
21
200.794132
0
LINE
8
1
10
127.270870
20
200.794132
11
126.067337
21
204.277197
0
LINE
8
1
10
126.067337
20
204.277197
11
125.252540
21
205.941141
0
LINE
8
1
10
125.252540
20
205.941141
11
124.293720
21
207.540037
0
LINE
8
1
10
124.293720
20
207.540037
11
123.568810
21
208.776197
0
LINE
8
1
10
123.568810
20
208.776197
11
122.644063
21
209.933381
0
LINE
8
1
10
122.644063
20
209.933381
11
120.466623
21
212.049690
0
LINE
8
1
10
120.466623
20
212.049690
11
118.304530
21
213.966692
0
LINE
8
1
10
118.304530
20
213.966692
11
117.398965
21
214.874744
0
LINE
8
1
10
117.398965
20
214.874744
11
116.700910
21
215.762118
0
LINE
8
1
10
116.700910
20
215.762118
11
117.916844
21
217.168601
0
LINE
8
1
10
117.916844
20
217.168601
11
118.941758
21
218.690951
0
LINE
8
1
10
118.941758
20
218.690951
11
119.777579
21
220.310273
0
LINE
8
1
10
119.777579
20
220.310273
11
120.426236
21
222.007671
0
LINE
8
1
10
120.426236
20
222.007671
11
120.889655
21
223.764249
0
LINE
8
1
10
120.889655
20
223.764249
11
121.169765
21
225.561113
0
LINE
8
1
10
121.169765
20
225.561113
11
121.268493
21
227.379365
0
LINE
8
1
10
121.268493
20
227.379365
11
121.187768
21
229.200111
0
LINE
8
1
10
121.187768
20
229.200111
11
120.929517
21
231.004455
0
LINE
8
1
10
120.929517
20
231.004455
11
120.495668
21
232.773502
0
LINE
8
1
10
120.495668
20
232.773502
11
119.888149
21
234.488356
0
LINE
8
1
10
119.888149
20
234.488356
11
119.108887
21
236.130121
0
LINE
8
1
10
119.108887
20
236.130121
11
118.159811
21
237.679903
0
LINE
8
1
10
118.159811
20
237.679903
11
117.042848
21
239.118804
0
LINE
8
1
10
117.042848
20
239.118804
11
115.759927
21
240.427930
0
LINE
8
1
10
115.759927
20
240.427930
11
114.312974
21
241.588385
0
LINE
8
1
10
114.312974
20
241.588385
11
112.786464
21
242.648841
0
LINE
8
1
10
112.786464
20
242.648841
11
111.162754
21
243.510563
0
LINE
8
1
10
111.162754
20
243.510563
11
109.460747
21
244.176791
0
LINE
8
1
10
109.460747
20
244.176791
11
107.699348
21
244.650764
0
LINE
8
1
10
107.699348
20
244.650764
11
105.897461
21
244.935723
0
LINE
8
1
10
105.897461
20
244.935723
11
104.073988
21
245.034907
0
LINE
8
1
10
104.073988
20
245.034907
11
102.247834
21
244.951556
0
LINE
8
1
10
102.247834
20
244.951556
11
100.437903
21
244.688909
0
LINE
8
1
10
100.437903
20
244.688909
11
98.663098
21
244.250207
0
LINE
8
1
10
98.663098
20
244.250207
11
96.942323
21
243.638689
0
LINE
8
1
10
96.942323
20
243.638689
11
95.294482
21
242.857596
0
LINE
8
1
10
95.294482
20
242.857596
11
93.738478
21
241.910166
0
LINE
8
1
10
93.738478
20
241.910166
11
92.293215
21
240.799640
0
LINE
8
1
10
92.293215
20
240.799640
11
90.977597
21
239.529258
0
LINE
8
1
10
90.977597
20
239.529258
11
89.810528
21
238.102259
0
LINE
8
1
10
89.810528
20
238.102259
11
88.810912
21
236.521882
0
LINE
8
1
10
88.810912
20
236.521882
11
87.529613
21
233.943878
0
LINE
8
1
10
87.529613
20
233.943878
11
86.725431
21
231.197684
0
LINE
8
1
10
86.725431
20
231.197684
11
86.388338
21
228.357097
0
LINE
8
1
10
86.388338
20
228.357097
11
86.508308
21
225.495913
0
LINE
8
1
10
86.508308
20
225.495913
11
87.075314
21
222.687929
0
LINE
8
1
10
87.075314
20
222.687929
11
88.079328
21
220.006941
0
LINE
8
1
10
88.079328
20
220.006941
11
89.510326
21
217.526744
0
LINE
8
1
10
89.510326
20
217.526744
11
91.358280
21
215.321135
0
LINE
8
1
10
91.358280
20
215.321135
11
89.392815
21
214.051346
0
LINE
8
1
10
89.392815
20
214.051346
11
87.590540
21
212.590786
0
LINE
8
1
10
87.590540
20
212.590786
11
85.956848
21
210.958861
0
LINE
8
1
10
85.956848
20
210.958861
11
84.497134
21
209.174973
0
LINE
8
1
10
84.497134
20
209.174973
11
83.216793
21
207.258526
0
LINE
8
1
10
83.216793
20
207.258526
11
82.121218
21
205.228924
0
LINE
8
1
10
82.121218
20
205.228924
11
81.215805
21
203.105571
0
LINE
8
1
10
81.215805
20
203.105571
11
80.505947
21
200.907870
0
LINE
8
1
10
80.505947
20
200.907870
11
79.997039
21
198.655225
0
LINE
8
1
10
79.997039
20
198.655225
11
79.694476
21
196.367039
0
LINE
8
1
10
79.694476
20
196.367039
11
79.603651
21
194.062717
0
LINE
8
1
10
79.603651
20
194.062717
11
79.729960
21
191.761662
0
LINE
8
1
10
79.729960
20
191.761662
11
80.078796
21
189.483277
0
LINE
8
1
10
80.078796
20
189.483277
11
80.655555
21
187.246967
0
LINE
8
1
10
80.655555
20
187.246967
11
81.465630
21
185.072134
0
LINE
8
1
10
81.465630
20
185.072134
11
82.514416
21
182.978184
0
LINE
8
1
10
82.514416
20
182.978184
11
83.235027
21
182.223041
0
LINE
8
1
10
83.235027
20
182.223041
11
83.693746
21
181.511107
0
LINE
8
1
10
83.693746
20
181.511107
11
83.917660
21
180.836660
0
LINE
8
1
10
83.917660
20
180.836660
11
83.933857
21
180.193977
0
LINE
8
1
10
83.933857
20
180.193977
11
83.769424
21
179.577339
0
LINE
8
1
10
83.769424
20
179.577339
11
83.451448
21
178.981023
0
LINE
8
1
10
83.451448
20
178.981023
11
82.463217
21
177.826472
0
LINE
8
1
10
82.463217
20
177.826472
11
79.836085
21
175.509498
0
LINE
8
1
10
79.836085
20
175.509498
11
78.630582
21
174.255533
0
LINE
8
1
10
78.630582
20
174.255533
11
77.786053
21
172.876886
0
LINE
8
1
10
77.786053
20
172.876886
11
76.193202
21
170.528616
0
LINE
8
1
10
76.193202
20
170.528616
11
74.844813
21
168.051441
0
LINE
8
1
10
74.844813
20
168.051441
11
73.739478
21
165.466253
0
LINE
8
1
10
73.739478
20
165.466253
11
72.875790
21
162.793946
0
LINE
8
1
10
72.875790
20
162.793946
11
72.252339
21
160.055413
0
LINE
8
1
10
72.252339
20
160.055413
11
71.867719
21
157.271547
0
LINE
8
1
10
71.867719
20
157.271547
11
71.720521
21
154.463240
0
LINE
8
1
10
71.720521
20
154.463240
11
71.809338
21
151.651386
0
LINE
8
1
10
71.809338
20
151.651386
11
72.132761
21
148.856877
0
LINE
8
1
10
72.132761
20
148.856877
11
72.689383
21
146.100607
0
LINE
8
1
10
72.689383
20
146.100607
11
73.477796
21
143.403468
0
LINE
8
1
10
73.477796
20
143.403468
11
74.496591
21
140.786355
0
LINE
8
1
10
74.496591
20
140.786355
11
75.744362
21
138.270158
0
LINE
8
1
10
75.744362
20
138.270158
11
77.219700
21
135.875772
0
LINE
8
1
10
77.219700
20
135.875772
11
78.921197
21
133.624090
0
LINE
8
1
10
78.921197
20
133.624090
11
80.847445
21
131.536004
0
LINE
8
1
10
80.847445
20
131.536004
11
83.510718
21
129.087268
0
LINE
8
1
10
83.510718
20
129.087268
11
86.433595
21
126.968371
0
LINE
8
1
10
86.433595
20
126.968371
11
89.574817
21
125.194422
0
LINE
8
1
10
89.574817
20
125.194422
11
92.893127
21
123.780530
0
LINE
8
1
10
92.893127
20
123.780530
11
96.347268
21
122.741804
0
LINE
8
1
10
96.347268
20
122.741804
11
99.895981
21
122.093353
0
LINE
8
1
10
99.895981
20
122.093353
11
103.498010
21
121.850284
0
LINE
8
1
10
103.498010
20
121.850284
11
107.112096
21
122.027706
0
LINE
8
1
10
107.112096
20
122.027706
11
107.112096
21
122.027706
 0 
ENDSEC
 0 
EOF