999
"DXF R12 Output" (www.mydxf.blogspot.com)
 0 
SECTION
 2 
HEADER
 9 
$ACADVER
 1 
AC1009
 9 
$EXTMIN
 10 
 0 
 20 
 0 
 9 
$EXTMAX
 10 
 8.5 
 20 
 11 
 0 
ENDSEC
 0 
SECTION
 2 
ENTITIES
0
LINE
8
1
10
97.577128
20
155.165880
11
99.624676
21
155.435977
0
LINE
8
1
10
99.624676
20
155.435977
11
101.624132
21
155.901389
0
LINE
8
1
10
101.624132
20
155.901389
11
103.564849
21
156.551214
0
LINE
8
1
10
103.564849
20
156.551214
11
105.436180
21
157.374550
0
LINE
8
1
10
105.436180
20
157.374550
11
107.227480
21
158.360495
0
LINE
8
1
10
107.227480
20
158.360495
11
108.928103
21
159.498148
0
LINE
8
1
10
108.928103
20
159.498148
11
110.527401
21
160.776606
0
LINE
8
1
10
110.527401
20
160.776606
11
112.014729
21
162.184969
0
LINE
8
1
10
112.014729
20
162.184969
11
113.379441
21
163.712333
0
LINE
8
1
10
113.379441
20
163.712333
11
114.610889
21
165.347798
0
LINE
8
1
10
114.610889
20
165.347798
11
115.698428
21
167.080461
0
LINE
8
1
10
115.698428
20
167.080461
11
116.631412
21
168.899420
0
LINE
8
1
10
116.631412
20
168.899420
11
117.399194
21
170.793774
0
LINE
8
1
10
117.399194
20
170.793774
11
117.991127
21
172.752621
0
LINE
8
1
10
117.991127
20
172.752621
11
118.396567
21
174.765059
0
LINE
8
1
10
118.396567
20
174.765059
11
118.604865
21
176.820186
0
LINE
8
1
10
118.604865
20
176.820186
11
118.655181
21
179.761201
0
LINE
8
1
10
118.655181
20
179.761201
11
118.318237
21
182.672112
0
LINE
8
1
10
118.318237
20
182.672112
11
117.614779
21
185.514175
0
LINE
8
1
10
117.614779
20
185.514175
11
116.565555
21
188.248645
0
LINE
8
1
10
116.565555
20
188.248645
11
115.191312
21
190.836777
0
LINE
8
1
10
115.191312
20
190.836777
11
113.512798
21
193.239827
0
LINE
8
1
10
113.512798
20
193.239827
11
111.550760
21
195.419050
0
LINE
8
1
10
111.550760
20
195.419050
11
109.325944
21
197.335701
0
LINE
8
1
10
109.325944
20
197.335701
11
110.761321
21
199.619461
0
LINE
8
1
10
110.761321
20
199.619461
11
111.832864
21
202.092709
0
LINE
8
1
10
111.832864
20
202.092709
11
112.531795
21
204.697048
0
LINE
8
1
10
112.531795
20
204.697048
11
112.849335
21
207.374080
0
LINE
8
1
10
112.849335
20
207.374080
11
112.776706
21
210.065409
0
LINE
8
1
10
112.776706
20
210.065409
11
112.305130
21
212.712635
0
LINE
8
1
10
112.305130
20
212.712635
11
111.425829
21
215.257363
0
LINE
8
1
10
111.425829
20
215.257363
11
110.130023
21
217.641195
0
LINE
8
1
10
110.130023
20
217.641195
11
109.600404
21
218.544332
0
LINE
8
1
10
109.600404
20
218.544332
11
108.924784
21
219.389770
0
LINE
8
1
10
108.924784
20
219.389770
11
107.333947
21
220.935945
0
LINE
8
1
10
107.333947
20
220.935945
11
105.754321
21
222.336508
0
LINE
8
1
10
105.754321
20
222.336508
11
104.582717
21
223.648247
0
LINE
8
1
10
104.582717
20
223.648247
11
105.471079
21
224.675824
0
LINE
8
1
10
105.471079
20
224.675824
11
106.219881
21
225.788053
0
LINE
8
1
10
106.219881
20
225.788053
11
106.830532
21
226.971129
0
LINE
8
1
10
106.830532
20
226.971129
11
107.304441
21
228.211248
0
LINE
8
1
10
107.304441
20
228.211248
11
107.847663
21
230.807392
0
LINE
8
1
10
107.847663
20
230.807392
11
107.860816
21
233.466045
0
LINE
8
1
10
107.860816
20
233.466045
11
107.355167
21
236.076764
0
LINE
8
1
10
107.355167
20
236.076764
11
106.341985
21
238.529110
0
LINE
8
1
10
106.341985
20
238.529110
11
104.832537
21
240.712642
0
LINE
8
1
10
104.832537
20
240.712642
11
103.895235
21
241.669089
0
LINE
8
1
10
103.895235
20
241.669089
11
102.838091
21
242.516918
0
LINE
8
1
10
102.838091
20
242.516918
11
101.722823
21
243.291687
0
LINE
8
1
10
101.722823
20
243.291687
11
100.536540
21
243.921261
0
LINE
8
1
10
100.536540
20
243.921261
11
98.006175
21
244.754292
0
LINE
8
1
10
98.006175
20
244.754292
11
95.357487
21
245.034946
0
LINE
8
1
10
95.357487
20
245.034946
11
92.700963
21
244.782160
0
LINE
8
1
10
92.700963
20
244.782160
11
90.147091
21
244.014870
0
LINE
8
1
10
90.147091
20
244.014870
11
87.806362
21
242.752011
0
LINE
8
1
10
87.806362
20
242.752011
11
86.750452
21
241.940660
0
LINE
8
1
10
86.750452
20
241.940660
11
85.789262
21
241.012519
0
LINE
8
1
10
85.789262
20
241.012519
11
84.936601
21
239.969953
0
LINE
8
1
10
84.936601
20
239.969953
11
84.206281
21
238.815330
0
LINE
8
1
10
84.206281
20
238.815330
11
83.270165
21
236.931840
0
LINE
8
1
10
83.270165
20
236.931840
11
82.682630
21
234.925471
0
LINE
8
1
10
82.682630
20
234.925471
11
82.436350
21
232.850139
0
LINE
8
1
10
82.436350
20
232.850139
11
82.524000
21
230.759758
0
LINE
8
1
10
82.524000
20
230.759758
11
82.938254
21
228.708245
0
LINE
8
1
10
82.938254
20
228.708245
11
83.671788
21
226.749514
0
LINE
8
1
10
83.671788
20
226.749514
11
84.717275
21
224.937483
0
LINE
8
1
10
84.717275
20
224.937483
11
86.067390
21
223.326065
0
LINE
8
1
10
86.067390
20
223.326065
11
84.631421
21
222.398356
0
LINE
8
1
10
84.631421
20
222.398356
11
83.314679
21
221.331272
0
LINE
8
1
10
83.314679
20
221.331272
11
82.121103
21
220.138987
0
LINE
8
1
10
82.121103
20
220.138987
11
81.054636
21
218.835678
0
LINE
8
1
10
81.054636
20
218.835678
11
80.119219
21
217.435522
0
LINE
8
1
10
80.119219
20
217.435522
11
79.318792
21
215.952695
0
LINE
8
1
10
79.318792
20
215.952695
11
78.657297
21
214.401373
0
LINE
8
1
10
78.657297
20
214.401373
11
78.138675
21
212.795732
0
LINE
8
1
10
78.138675
20
212.795732
11
77.766867
21
211.149950
0
LINE
8
1
10
77.766867
20
211.149950
11
77.545814
21
209.478201
0
LINE
8
1
10
77.545814
20
209.478201
11
77.479458
21
207.794663
0
LINE
8
1
10
77.479458
20
207.794663
11
77.571739
21
206.113512
0
LINE
8
1
10
77.571739
20
206.113512
11
77.826600
21
204.448924
0
LINE
8
1
10
77.826600
20
204.448924
11
78.247979
21
202.815076
0
LINE
8
1
10
78.247979
20
202.815076
11
78.839820
21
201.226143
0
LINE
8
1
10
78.839820
20
201.226143
11
79.606064
21
199.696302
0
LINE
8
1
10
79.606064
20
199.696302
11
80.467682
21
198.624456
0
LINE
8
1
10
80.467682
20
198.624456
11
80.631274
21
198.131704
0
LINE
8
1
10
80.631274
20
198.131704
11
80.643107
21
197.662160
0
LINE
8
1
10
80.643107
20
197.662160
11
80.290659
21
196.775976
0
LINE
8
1
10
80.290659
20
196.775976
11
79.568657
21
195.932461
0
LINE
8
1
10
79.568657
20
195.932461
11
77.649274
21
194.239680
0
LINE
8
1
10
77.649274
20
194.239680
11
76.768533
21
193.323533
0
LINE
8
1
10
76.768533
20
193.323533
11
76.151520
21
192.316294
0
LINE
8
1
10
76.151520
20
192.316294
11
74.987783
21
190.600648
0
LINE
8
1
10
74.987783
20
190.600648
11
74.002650
21
188.790823
0
LINE
8
1
10
74.002650
20
188.790823
11
73.195092
21
186.902085
0
LINE
8
1
10
73.195092
20
186.902085
11
72.564081
21
184.949697
0
LINE
8
1
10
72.564081
20
184.949697
11
72.108588
21
182.948925
0
LINE
8
1
10
72.108588
20
182.948925
11
71.827585
21
180.915032
0
LINE
8
1
10
71.827585
20
180.915032
11
71.720042
21
178.863282
0
LINE
8
1
10
71.720042
20
178.863282
11
71.784932
21
176.808942
0
LINE
8
1
10
71.784932
20
176.808942
11
72.021225
21
174.767273
0
LINE
8
1
10
72.021225
20
174.767273
11
72.427893
21
172.753542
0
LINE
8
1
10
72.427893
20
172.753542
11
73.003908
21
170.783013
0
LINE
8
1
10
73.003908
20
170.783013
11
73.748240
21
168.870949
0
LINE
8
1
10
73.748240
20
168.870949
11
74.659862
21
167.032616
0
LINE
8
1
10
74.659862
20
167.032616
11
75.737744
21
165.283277
0
LINE
8
1
10
75.737744
20
165.283277
11
76.980858
21
163.638198
0
LINE
8
1
10
76.980858
20
163.638198
11
78.388175
21
162.112642
0
LINE
8
1
10
78.388175
20
162.112642
11
80.333963
21
160.323595
0
LINE
8
1
10
80.333963
20
160.323595
11
82.469416
21
158.775529
0
LINE
8
1
10
82.469416
20
158.775529
11
84.764393
21
157.479482
0
LINE
8
1
10
84.764393
20
157.479482
11
87.188750
21
156.446493
0
LINE
8
1
10
87.188750
20
156.446493
11
89.712345
21
155.687599
0
LINE
8
1
10
89.712345
20
155.687599
11
92.305034
21
155.213841
0
LINE
8
1
10
92.305034
20
155.213841
11
94.936677
21
155.036255
0
LINE
8
1
10
94.936677
20
155.036255
11
97.577128
21
155.165880
0
LINE
8
1
10
97.577128
20
155.165880
11
97.577128
21
155.165880
 0 
ENDSEC
 0 
EOF